# xmcd
# 
# Track frame offsets:
#     150
#     17526
#     40944
#     65744
#     87158
#     106832
#     121107
#     143211
#     161547
# 
# Disc length: 2409
# 
# Revision: 1
# Processed by: cddbd v1.5.2PL0 Copyright (c) Steve Scherf et al.
# Submitted via: fre:ac v1.0.27
# 
DISCID=6c096709
DTITLE=Ry Cooder - Bob Till You Drop
DYEAR=1979
DGENRE=Rock
TTITLE0=Little Sister
TTITLE1=Go Home, Girl
TTITLE2=The Very Thing That Makes You Rich
TTITLE3=I Think It's Going To Work Out Fine
TTITLE4=Down In Hollywood
TTITLE5=Look At Granny Run Run
TTITLE6=Trouble, You Can't Fool Me
TTITLE7=Don't Mess Up A Good Thing
TTITLE8=I Can't Win
EXTD=
EXTT0=
EXTT1=
EXTT2=
EXTT3=
EXTT4=
EXTT5=
EXTT6=
EXTT7=
EXTT8=
PLAYORDER=
